<svg width="50" height="50" viewBox="0 0 50 50" fill="none" xmlns="http://www.w3.org/2000/svg">
<g filter="url(#filter0_ii_3559_14172)">
<path d="M11.2782 21.8543C9.34495 21.8584 7.20246 21.9311 5.16459 21.1548C3.61193 20.4755 2.17985 19.5282 0.9918 17.6613C0.312512 16.5939 0.0213926 15.0412 0.0213926 13.5856C0.0213845 12.9954 -0.0950551 8.53951 0.215461 6.98687C0.525977 5.43422 1.06745 4.26947 1.55266 3.59021C2.03788 2.91089 2.62011 2.13457 3.49351 1.45528C3.98018 1.07679 4.56096 0.776009 5.24023 0.484882C5.63543 0.315521 6.0166 0.290804 6.4047 0.193764C6.79289 0.096725 7.86034 0 8.34555 0H16.9491H28.0663C28.0663 0 26.6108 0.873362 25.8344 1.45561C25.0581 2.03784 24.4213 2.64036 23.3539 4.19302C22.5764 5.3239 22.2864 7.20122 22.1894 7.88057C22.0923 8.55984 22.1894 13.897 22.1894 13.897V21.8543C22.1894 21.8543 14.3812 21.8479 11.2782 21.8543Z" fill="#7097E5"/>
<path d="M28.1446 11.278C28.1406 9.34483 28.0679 7.20235 28.8442 5.16455C29.5235 3.6119 30.4708 2.17983 32.3377 0.991781C33.4051 0.312505 34.9579 0.0213954 36.4134 0.0213873C37.0037 0.0213873 41.4596 -0.0950549 43.0122 0.215458C44.5649 0.525971 45.7297 1.06744 46.409 1.55265C47.0883 2.03785 47.8647 2.62008 48.5439 3.49343C48.9224 3.98012 49.2232 4.56092 49.5144 5.24019C49.6837 5.63535 49.7084 6.01647 49.8054 6.40462C49.9026 6.79284 49.9993 7.86024 49.9993 8.34548V16.9489V28.066C49.9993 28.066 49.1259 26.6104 48.5436 25.8341C47.9614 25.0577 47.3589 24.421 45.8061 23.3536C44.6753 22.5761 42.7979 22.2861 42.1186 22.1891C41.4393 22.092 36.1021 22.1891 36.1021 22.1891H28.1446C28.1446 22.1891 28.151 14.381 28.1446 11.278Z" fill="#4C7DDF"/>
<path d="M38.7189 28.1456C40.6521 28.1415 42.7946 28.0689 44.8325 28.8451C46.3851 29.5244 47.8172 30.4717 49.0053 32.3387C49.6845 33.4061 49.9756 34.9587 49.9757 36.4143C49.9757 37.0046 50.0921 41.4604 49.7816 43.0131C49.471 44.5657 48.9296 45.7305 48.4444 46.4097C47.9592 47.0891 47.377 47.8654 46.5036 48.5446C46.0169 48.9232 45.4361 49.2239 44.7568 49.515C44.3616 49.6844 43.9805 49.7091 43.5923 49.8061C43.2041 49.9032 42.1367 49.9999 41.6514 49.9999H33.0479H21.9307C21.9307 49.9999 23.3863 49.1266 24.1626 48.5443C24.939 47.962 25.5758 47.3596 26.6432 45.8069C27.4206 44.676 27.7107 42.7987 27.8077 42.1194C27.9047 41.4401 27.8077 36.1029 27.8077 36.1029V28.1456C27.8077 28.1456 35.6159 28.152 38.7189 28.1456Z" fill="#1052D4"/>
<path d="M21.8546 38.7196C21.8587 40.6528 21.9314 42.7953 21.155 44.8331C20.4758 46.3857 19.5285 47.8178 17.6615 49.0058C16.5942 49.6851 15.0414 49.9762 13.5858 49.9762C12.9955 49.9763 8.53968 50.0926 6.98702 49.7822C5.43436 49.4717 4.26948 48.9302 3.59021 48.445C2.91093 47.9598 2.1346 47.3775 1.4553 46.5042C1.0768 46.0175 0.776016 45.4367 0.484889 44.7575C0.315529 44.3623 0.290812 43.9811 0.19377 43.593C0.0967275 43.2048 0 42.1374 0 41.6522V33.0487V21.9316C0 21.9316 0.873373 23.3872 1.45562 24.1636C2.03787 24.9398 2.6404 25.5767 4.19304 26.6441C5.32393 27.4216 7.20133 27.7115 7.88068 27.8086C8.55994 27.9056 13.8972 27.8086 13.8972 27.8086H21.8546C21.8546 27.8086 21.8482 35.6167 21.8546 38.7196Z" fill="#396FDB"/>
</g>
<defs>
<filter id="filter0_ii_3559_14172" x="0" y="0" width="53.999" height="54" filterUnits="userSpaceOnUse" color-interpolation-filters="sRGB">
<feFlood flood-opacity="0" result="BackgroundImageFix"/>
<feBlend mode="normal" in="SourceGraphic" in2="BackgroundImageFix" result="shape"/>
<feColorMatrix in="SourceAlpha" type="matrix" values="0 0 0 0 0 0 0 0 0 0 0 0 0 0 0 0 0 0 127 0" result="hardAlpha"/>
<feOffset dx="4" dy="4"/>
<feGaussianBlur stdDeviation="5"/>
<feComposite in2="hardAlpha" operator="arithmetic" k2="-1" k3="1"/>
<feColorMatrix type="matrix" values="0 0 0 0 0.0509804 0 0 0 0 0.152941 0 0 0 0 0.313726 0 0 0 0.15 0"/>
<feBlend mode="normal" in2="shape" result="effect1_innerShadow_3559_14172"/>
<feColorMatrix in="SourceAlpha" type="matrix" values="0 0 0 0 0 0 0 0 0 0 0 0 0 0 0 0 0 0 127 0" result="hardAlpha"/>
<feOffset dx="1" dy="1"/>
<feGaussianBlur stdDeviation="2.5"/>
<feComposite in2="hardAlpha" operator="arithmetic" k2="-1" k3="1"/>
<feColorMatrix type="matrix" values="0 0 0 0 1 0 0 0 0 1 0 0 0 0 1 0 0 0 0.2 0"/>
<feBlend mode="normal" in2="effect1_innerShadow_3559_14172" result="effect2_innerShadow_3559_14172"/>
</filter>
</defs>
</svg>
